<svg xmlns="http://www.w3.org/2000/svg" xmlns:xlink="http://www.w3.org/1999/xlink" viewBox="0 0 1080 1080" width="1080" height="1080" preserveAspectRatio="xMidYMid meet" style="width: 100%; height: 100%; transform: translate3d(0px, 0px, 0px); content-visibility: visible;"><defs><clipPath id="__lottie_element_26"><rect width="1080" height="1080" x="0" y="0"></rect></clipPath><clipPath id="__lottie_element_28"><path d="M0,0 L596,0 L596,842 L0,842z"></path></clipPath></defs><g clip-path="url(#__lottie_element_26)"><g transform="matrix(1,0,0,1,536,372)" opacity="1" style="display: block;"><g opacity="1" transform="matrix(1,0,0,1,0,0)"><path stroke-linecap="round" stroke-linejoin="miter" fill-opacity="0" stroke-miterlimit="4" stroke="rgb(246,127,1)" stroke-opacity="1" stroke-width="17" d=" M-28.43899917602539,621.8590087890625 C-12.659000396728516,627.2940063476562 18.902000427246094,638.1630249023438 43.59199905395508,640.56298828125 C82.40299987792969,644.3359985351562 122.15599822998047,646.9169921875 160.572998046875,640.2340087890625 C185.96299743652344,635.8170166015625 211.96800231933594,625.5369873046875 230.83999633789062,607.9869995117188 C237.4340057373047,601.85498046875 230.697998046875,586.905029296875 223.07400512695312,582.1129760742188 C217.10800170898438,578.3629760742188 205.2830047607422,584.1530151367188 203.9219970703125,591.0679931640625 C202.41099548339844,598.7449951171875 209.9219970703125,608.43798828125 217.5500030517578,610.1799926757812 C238.91400146484375,615.0590209960938 263.3919982910156,618.385986328125 283.2850036621094,609.1929931640625 C319.8190002441406,592.3109741210938 345.74200439453125,558.2639770507812 378.9859924316406,535.5800170898438 C407.8420104980469,515.8900146484375 447.6400146484375,493.427001953125 471.0509948730469,480.3590087890625"></path></g></g><g clip-path="url(#__lottie_element_28)" transform="matrix(0.009659804403781891,0.13814163208007812,-0.13814163208007812,0.009659804403781891,1061.279052734375,817.6762084960938)" opacity="1" style="display: block;"><g transform="matrix(1,0,0,1,129.63101196289062,453.9560241699219)" opacity="1" style="display: block;"><g opacity="1" transform="matrix(16.690000534057617,0,0,16.690000534057617,172.2899932861328,13.045999526977539)"><path fill="rgb(246,127,1)" fill-opacity="1" d=" M-5.790999889373779,9.423999786376953 C-5.708000183105469,3.188999891281128 -5.625,-3.0460000038146973 -5.541999816894531,-9.281000137329102 C-7.124000072479248,-8.076000213623047 -8.706000328063965,-6.870999813079834 -10.288000106811523,-5.664999961853027 C-10.288000106811523,-5.664999961853027 8.666000366210938,-0.012000000104308128 8.666000366210938,-0.012000000104308128 C13.300999641418457,1.3700000047683716 15.281999588012695,-5.866000175476074 10.65999984741211,-7.24399995803833 C4.3420000076293945,-9.128999710083008 -1.9759999513626099,-11.012999534606934 -8.295000076293945,-12.89799976348877 C-10.664999961853027,-13.604000091552734 -13.010000228881836,-11.668999671936035 -13.041999816894531,-9.281000137329102 C-13.125,-3.0460000038146973 -13.208000183105469,3.188999891281128 -13.291000366210938,9.423999786376953 C-13.354999542236328,14.251999855041504 -5.855000019073486,14.253999710083008 -5.790999889373779,9.423999786376953z"></path></g></g></g></g></svg>