<svg width="32" height="32" viewBox="0 0 32 32" fill="none" xmlns="http://www.w3.org/2000/svg">
<path d="M32 16C32 24.8366 24.8366 32 16 32C11.3417 32 7.14841 30.0095 4.22465 26.8323C3.45665 25.9984 2.77682 25.0821 2.1982 24.0993C0.801306 21.7234 0 18.9551 0 16C0 7.16343 7.16343 0 16 0C18.9558 0 21.7241 0.801306 24.0993 2.19886C25.0821 2.77682 25.9977 3.45665 26.8317 4.22531C30.0088 7.14775 32 11.3417 32 16Z" fill="#F0CD00"/>
<path d="M32.0002 16C32.0002 24.6374 25.1568 31.6761 16.5958 31.9889C8.03483 31.6761 1.19141 24.6374 1.19141 16C1.19141 7.36262 8.03483 0.323925 16.5958 0.0111084C25.1568 0.323925 32.0002 7.36262 32.0002 16Z" fill="#FFDE50"/>
<path d="M26.8327 4.22548L4.22567 26.8325C3.45767 25.9985 2.77783 25.0823 2.19922 24.0994L24.1003 2.19904C25.0831 2.77699 25.9987 3.45683 26.8327 4.22548Z" fill="#FFEA94"/>
<path d="M30.895 10.1505L10.1486 30.897C8.67986 30.3197 7.31692 29.5314 6.09766 28.5695L28.5682 6.09894C29.5301 7.3182 30.3184 8.68114 30.895 10.1505Z" fill="#FFEA94"/>
<path d="M28.4324 16C28.4324 22.8663 22.8657 28.433 15.9994 28.433C13.6079 28.433 11.3744 27.7577 9.47857 26.5874C8.65245 26.078 7.89098 25.474 7.20787 24.7909C6.70567 24.2893 6.24592 23.744 5.83514 23.1621C5.26959 22.3608 4.79612 21.4896 4.43106 20.5642C3.89032 19.1961 3.586 17.7084 3.56771 16.1528C3.56641 16.1019 3.56641 16.0509 3.56641 16C3.56641 9.13371 9.13245 3.56702 15.9994 3.56702C16.0503 3.56702 16.1019 3.56702 16.1529 3.56832C17.7084 3.58661 19.1955 3.89159 20.5636 4.43167C21.489 4.79738 22.3602 5.2702 23.1615 5.83575C23.7434 6.24718 24.288 6.70628 24.7902 7.20849C25.4733 7.89093 26.0774 8.65306 26.5868 9.47918C27.7571 11.375 28.4324 13.6085 28.4324 16Z" fill="#FAA300"/>
<path d="M24.7902 7.20849L7.20788 24.7909C6.70567 24.2893 6.24592 23.744 5.83514 23.1621C5.26959 22.3608 4.79612 21.4896 4.43106 20.5642C3.89032 19.1961 3.586 17.7084 3.56771 16.1528C3.56641 16.1019 3.56641 16.0509 3.56641 16C3.56641 9.13371 9.13245 3.56702 15.9994 3.56702C16.0503 3.56702 16.1019 3.56702 16.1529 3.56832C17.7084 3.58661 19.1955 3.89159 20.5636 4.43167C21.489 4.79738 22.3602 5.2702 23.1615 5.83575C23.7434 6.24718 24.288 6.70628 24.7902 7.20849Z" fill="#FFBD00"/>
<path d="M28.4338 16C28.4338 22.8663 22.8672 28.433 16.0009 28.433C15.7651 28.433 15.5313 28.4264 15.2988 28.4134C21.8386 28.0496 27.0291 22.6305 27.0291 16C27.0291 9.36947 21.8386 3.95036 15.2988 3.58661C15.5313 3.57355 15.7651 3.56702 16.0009 3.56702C22.8672 3.56702 28.4338 9.13371 28.4338 16Z" fill="#F68E00"/>
<path d="M15.59 15.0447V10.0095C16.3748 10.4424 16.9077 11.2779 16.9077 12.2358C16.9077 12.9114 17.4554 13.4592 18.131 13.4592C18.8067 13.4592 19.3544 12.9114 19.3544 12.2358C19.3544 9.90755 17.7507 7.94719 15.59 7.40032V6.40453C15.59 5.72887 15.0423 5.18115 14.3667 5.18115C13.691 5.18115 13.1433 5.72887 13.1433 6.40453V7.40025C10.9826 7.94719 9.37891 9.90749 9.37891 12.2357C9.37891 13.6259 9.7872 14.71 10.6271 15.5499C11.2395 16.1622 12.0529 16.6154 13.1433 16.9476V21.9907C12.3586 21.5578 11.8257 20.7223 11.8257 19.7645C11.8257 19.0888 11.2779 18.5411 10.6023 18.5411C9.92663 18.5411 9.37891 19.0888 9.37891 19.7645C9.37891 22.0927 10.9826 24.053 13.1433 24.5999V25.5956C13.1433 26.2713 13.691 26.819 14.3667 26.819C15.0423 26.819 15.59 26.2713 15.59 25.5956V24.5999C17.7507 24.053 19.3544 22.0928 19.3544 19.7645C19.3544 18.3936 18.9286 17.2727 18.0889 16.433C17.4786 15.8227 16.6551 15.3651 15.59 15.0447ZM12.3573 13.8198C12.1097 13.5723 11.8257 13.1686 11.8257 12.2357C11.8257 11.2779 12.3586 10.4424 13.1433 10.0094V14.3403C12.8134 14.1875 12.5521 14.0147 12.3573 13.8198ZM15.59 21.9907V17.6465C16.6533 18.1416 16.9077 18.85 16.9077 19.7645C16.9077 20.7223 16.3748 21.5578 15.59 21.9907Z" fill="#F68E00"/>
<path d="M17.2111 14.8635V9.82834C17.9959 10.2613 18.5288 11.0968 18.5288 12.0546C18.5288 12.7303 19.0765 13.278 19.7521 13.278C20.4278 13.278 20.9755 12.7303 20.9755 12.0546C20.9755 9.7264 19.3718 7.76604 17.2111 7.21917V6.22338C17.2111 5.54772 16.6634 5 15.9878 5C15.3121 5 14.7644 5.54772 14.7644 6.22338V7.2191C12.6037 7.76604 11 9.72633 11 12.0546C11 13.4447 11.4083 14.5288 12.2482 15.3687C12.8606 15.9811 13.674 16.4343 14.7644 16.7665V21.8095C13.9797 21.3766 13.4468 20.5412 13.4468 19.5833C13.4468 18.9077 12.899 18.3599 12.2234 18.3599C11.5477 18.3599 11 18.9077 11 19.5833C11 21.9115 12.6037 23.8718 14.7644 24.4188V25.4145C14.7644 26.0902 15.3121 26.6379 15.9878 26.6379C16.6634 26.6379 17.2111 26.0902 17.2111 25.4145V24.4188C19.3718 23.8718 20.9755 21.9116 20.9755 19.5833C20.9755 18.2124 20.5497 17.0916 19.71 16.2519C19.0997 15.6415 18.2761 15.184 17.2111 14.8635ZM13.9783 13.6386C13.7308 13.3912 13.4468 12.9875 13.4468 12.0546C13.4468 11.0967 13.9797 10.2613 14.7644 9.82828V14.1591C14.4345 14.0063 14.1732 13.8336 13.9783 13.6386ZM17.2111 21.8095V17.4653C18.2744 17.9605 18.5288 18.6688 18.5288 19.5833C18.5287 20.5412 17.9959 21.3766 17.2111 21.8095Z" fill="#FFEA94"/>
</svg>
