<svg width="49" height="49" viewBox="0 0 49 49" fill="none" xmlns="http://www.w3.org/2000/svg">
<circle cx="24.5" cy="24.5" r="24.5" fill="white"/>
<g clip-path="url(#clip0_655_979)">
<path d="M39.8621 20.4978L34.3593 37.6854L21.5193 39.9957L8 35.7157V16.7612C20.3583 14.9159 15.8225 15.5929 24.3724 14.3157C30.1839 16.6351 35.7469 18.8552 39.8621 20.4978Z" fill="#F0B48F"/>
<path d="M37.0131 19.3605C35.9737 19.724 33.5744 20.3288 31.4448 19.1529C31.4448 19.1529 26.322 24.624 20.9882 23.2909C20.9882 23.2909 18.6436 20.4978 20.1151 15.9398C20.2648 15.4764 20.5765 15.1281 20.9006 14.8343L24.3724 14.3157L37.0131 19.3605Z" fill="#E2A27F"/>
<path d="M39.8621 20.4978L34.3593 37.6854L21.5193 39.9957L8 35.7157V16.7612L24.3048 22.264L39.8621 20.4978Z" fill="#E2A27F"/>
<path d="M39.862 20.4978L34.3593 37.6854L21.5193 39.9957L24.3048 22.264L39.862 20.4978Z" fill="#D68F67"/>
<path d="M33.7193 21.1957L32.7745 25.5474L29.2862 26.0909C30.0957 21.558 30.0931 21.6074 30.0862 21.6074C28.4383 21.0153 23.2855 19.1655 14.069 15.855L18.9393 15.1274C18.9463 15.1274 33.7123 21.1921 33.7193 21.1957Z" fill="#FAE26B"/>
<path d="M30.629 19.9268C30.2145 20.293 29.6572 20.7502 28.9903 21.2137L19.689 17.8737C19.7586 17.2716 19.8938 16.6261 20.1152 15.9399C20.1476 15.8412 20.1869 15.7474 20.2324 15.6585L30.629 19.9268Z" fill="#EDD15A"/>
<path d="M33.7194 21.195C33.7194 21.2022 33.6967 21.3001 32.7745 25.5474L29.2863 26.0909L30.0869 21.6074C33.9838 21.1648 33.7121 21.195 33.7194 21.195Z" fill="#EDD15A"/>
<path d="M40 10.835V15.9398L38.4186 16.4095C37.8 16.9771 37.0489 17.1447 37.0489 17.1447L32.56 16.1364C32.3175 13.1208 32.4102 14.2739 32.1393 10.9026C39.2665 11.2981 38.3353 11.2509 38.4158 11.2509L40 10.835Z" fill="#FFD5B8"/>
<path d="M32.138 17.175C31.112 17.3763 30.1468 17.1564 29.2838 16.6262C30.181 16.1149 31.0508 15.4627 31.8158 14.6312C33.5648 15.1264 34.3891 16.7328 32.138 17.175Z" fill="#FFEBD4"/>
<path d="M34.8545 17.7564C33.4819 18.9451 31.3336 18.0333 29.8607 16.9916C29.7159 16.8895 29.6304 16.8219 29.6207 16.8143C30.4579 17.2332 31.298 17.3395 32.138 17.175C33.5462 16.8985 33.749 16.1716 33.2828 15.5433C33.8969 15.5872 34.75 15.7878 35.1904 16.2095C35.5793 16.5826 35.6083 17.1033 34.8545 17.7564Z" fill="#FFEBD4"/>
<path d="M33.4538 18.313C32.0193 18.404 30.4497 17.4081 29.8607 16.9916C29.8635 16.9709 29.8669 16.9502 29.8704 16.9302C30.5131 17.2054 31.2752 17.344 32.138 17.175C33.5462 16.8985 33.749 16.1716 33.2828 15.5433C33.7069 15.5736 34.1607 15.6674 34.5435 15.8205C33.9255 16.1178 33.1428 16.8005 33.4538 18.313Z" fill="#FFD5B8"/>
<path d="M37.049 17.1447C36.9518 17.5834 36.4814 18.0205 36.0932 18.2398C35.2366 18.7267 34.3021 18.5309 33.6821 18.2895C34.0994 18.2281 34.4994 18.064 34.8545 17.7564C35.6083 17.1033 35.5794 16.5826 35.1904 16.2095C36.2273 15.9023 37.2223 16.3658 37.049 17.1447Z" fill="#FFEBD4"/>
<path d="M36.0932 18.2398C35.2366 18.7267 34.3021 18.5309 33.6821 18.2895C34.0994 18.2281 34.4994 18.064 34.8545 17.7564C35.6083 17.1033 35.5794 16.5826 35.1904 16.2095C35.6607 16.0701 36.1152 16.0881 36.4587 16.2198C35.7863 16.5288 35.1421 17.1336 36.0932 18.2398Z" fill="#FFD5B8"/>
<path d="M30.6707 9.8555C30.5628 10.2249 30.3995 10.5732 30.2049 10.9015L30.2047 10.9012C30.2047 10.9012 29.249 11.9814 26.6583 12.4155C25.0474 8.83901 30.6707 9.8555 30.6707 9.8555Z" fill="#FFD5B8"/>
<path d="M30.2047 10.9011C30.2047 10.9011 25.6304 13.8337 20.2278 11.4485C20.2278 11.4485 17.9003 16.4305 21.1945 21.7696C21.1945 21.7696 30.9778 21.5487 33.7087 13.2501" fill="#79E9B3"/>
<path d="M30.1691 13.2959C30.1691 13.2959 26.8265 15.2586 22.7891 14.2068C22.7891 14.2068 22.7624 15.5465 21.212 15.9701C21.212 15.9701 21.1052 17.0117 21.6644 18.3708C21.6644 18.3708 23.3807 17.9605 23.9146 19.3977C23.9146 19.3977 30.3847 18.2697 31.4446 14.1526L30.1691 13.2959Z" fill="#B4FFC6"/>
<path d="M40 10.835V12.915L36.6772 13.9178C36.4998 13.8796 34.3468 14.947 32.9814 12.2012C32.7163 13.1031 32.2601 14.0208 31.4855 14.5536L31.4848 14.553C30.9483 14.9226 30.2517 15.1109 29.351 14.964C25.6072 14.3571 29.8317 12.7371 30.6703 9.85572C31.44 7.22537 36.2469 7.14882 38.4159 11.2509L40 10.835Z" fill="#FFEBD4"/>
<path d="M33.811 13.3743C33.5193 13.095 33.2365 12.7143 32.9813 12.2012C33.262 11.2467 33.2944 10.4171 33.2944 10.4171C33.2944 10.4171 33.9965 11.8592 33.811 13.3743Z" fill="#FFD5B8"/>
</g>
<defs>
<clipPath id="clip0_655_979">
<rect width="32" height="32" fill="white" transform="translate(8 8)"/>
</clipPath>
</defs>
</svg>
