<svg width="310" height="334" viewBox="0 0 310 334" fill="none" xmlns="http://www.w3.org/2000/svg">
<path d="M178.892 333.772C249.261 333.772 306.307 315.443 306.307 292.832C306.307 270.222 249.261 251.892 178.892 251.892C108.523 251.892 51.4775 270.222 51.4775 292.832C51.4775 315.443 108.523 333.772 178.892 333.772Z" fill="url(#paint0_linear)"/>
<g style="mix-blend-mode:overlay">
<path d="M179.708 333.772C250.077 333.772 307.122 315.443 307.122 292.832C307.122 270.222 250.077 251.892 179.708 251.892C109.338 251.892 52.293 270.222 52.293 292.832C52.293 315.443 109.338 333.772 179.708 333.772Z" fill="#62A49C" fill-opacity="0.2"/>
</g>
<path opacity="0.5" d="M162.304 298.186C78.3814 305.976 81.081 243.92 81.081 243.92C92.374 205.178 124.407 200.171 134.575 182.594C154.023 148.965 136.309 106.996 105.032 102.212C93.2256 100.406 69.2167 132.634 116.184 159.306C132.728 168.701 154.099 164.848 173.06 137.324C202.06 95.254 143.491 41.5039 142.869 38.7156" stroke="#29B6AB" stroke-width="4" stroke-miterlimit="10" stroke-linecap="round" stroke-linejoin="round" stroke-dasharray="4 10"/>
<path opacity="0.4" d="M132.446 26.5135C132.446 26.5135 130.88 13.2652 133.819 9.22577C135.246 7.32008 137.367 6.05195 139.723 5.69577C142.079 5.33959 144.481 5.92399 146.408 7.32254C148.336 8.72109 149.635 10.8213 150.024 13.1688C150.412 15.5162 149.86 17.9222 148.486 19.866C145.547 23.9054 132.446 26.5135 132.446 26.5135Z" fill="#AAD8D4"/>
<path opacity="0.4" d="M127.161 32.7509C127.161 32.7509 128.727 45.9992 125.788 50.0386C124.361 51.9443 122.24 53.2124 119.884 53.5686C117.528 53.9248 115.127 53.3403 113.199 51.9418C111.271 50.5433 109.973 48.443 109.584 46.0956C109.195 43.7481 109.747 41.3422 111.122 39.3983C114.061 35.3589 127.161 32.7509 127.161 32.7509Z" fill="#AAD8D4"/>
<path d="M139.188 23.7816L137.188 22.3306L126.546 36.9565L128.546 38.4076L139.188 23.7816Z" fill="#29B6AB"/>
<path d="M134.41 20.2792L132.409 18.8288L121.772 33.4601L123.771 34.9057L134.41 20.2792Z" fill="#29B6AB"/>
<path d="M120.334 22.367L125.012 21.6273C127.873 21.1748 130.796 21.8757 133.139 23.5756C135.482 25.2756 137.053 27.8354 137.506 30.6919L138.245 35.3458L133.567 36.0856C130.707 36.538 127.783 35.8371 125.44 34.1372C123.097 32.4372 121.526 29.8774 121.073 27.0209L120.334 22.367Z" fill="#4E8E87"/>
<path opacity="0.5" d="M111.419 19.8175L105.254 19.3459" stroke="#69C1B7" stroke-width="0.72" stroke-miterlimit="10"/>
<path opacity="0.5" d="M113.472 16.9966L110.255 11.4857" stroke="#69C1B7" stroke-width="0.72" stroke-miterlimit="10"/>
<path d="M118.664 27.6217C122.261 27.0529 124.715 23.6851 124.146 20.0996C123.578 16.514 120.201 14.0684 116.605 14.6372C113.009 15.206 110.554 18.5737 111.123 22.1593C111.692 25.7448 115.068 28.1904 118.664 27.6217Z" fill="#222429"/>
<path d="M163.602 185.166C163.602 177.668 166.585 170.477 171.895 165.175C177.204 159.873 184.406 156.895 191.915 156.895V156.895C199.424 156.895 206.625 159.873 211.935 165.175C217.245 170.477 220.228 177.668 220.228 185.166V331.77C220.228 331.77 205.465 333.644 195.311 333.915C185.157 334.186 163.602 333.72 163.602 333.72V185.166Z" fill="url(#paint1_linear)"/>
<path d="M163.602 185.166C163.602 177.668 166.585 170.477 171.895 165.175C177.204 159.873 184.406 156.895 191.915 156.895H268.933V213.438H163.602V185.166Z" fill="url(#paint2_linear)"/>
<path d="M268.365 213.441C275.558 213.441 281.389 200.783 281.389 185.168C281.389 169.553 275.558 156.895 268.365 156.895C261.172 156.895 255.341 169.553 255.341 185.168C255.341 200.783 261.172 213.441 268.365 213.441Z" fill="url(#paint3_linear)"/>
<g style="mix-blend-mode:overlay">
<path d="M268.365 213.441C275.558 213.441 281.389 200.783 281.389 185.168C281.389 169.553 275.558 156.895 268.365 156.895C261.172 156.895 255.341 169.553 255.341 185.168C255.341 200.783 261.172 213.441 268.365 213.441Z" fill="#69C1B7"/>
</g>
<g opacity="0.5">
<path opacity="0.5" d="M291.558 159.403L302.508 153.509C302.78 153.365 303.02 153.168 303.215 152.93C303.41 152.692 303.555 152.418 303.643 152.123C303.731 151.828 303.759 151.519 303.727 151.213C303.694 150.908 303.6 150.612 303.452 150.342C303.146 149.795 302.637 149.391 302.034 149.216C301.431 149.042 300.784 149.113 300.233 149.412L289.292 155.304C289.02 155.449 288.78 155.647 288.586 155.885C288.391 156.123 288.246 156.398 288.159 156.693C288.071 156.988 288.044 157.297 288.077 157.602C288.11 157.908 288.204 158.204 288.353 158.473C288.658 159.017 289.165 159.419 289.765 159.593C290.364 159.767 291.008 159.699 291.558 159.403V159.403Z" fill="url(#paint4_linear)"/>
<path opacity="0.5" d="M281.044 146.617L288.65 136.769C288.84 136.526 288.979 136.248 289.06 135.951C289.141 135.654 289.163 135.344 289.123 135.038C289.084 134.733 288.984 134.439 288.829 134.173C288.675 133.907 288.469 133.674 288.224 133.488C287.722 133.112 287.092 132.95 286.471 133.036C285.849 133.122 285.287 133.45 284.905 133.948L277.306 143.791C277.117 144.035 276.978 144.313 276.897 144.61C276.816 144.907 276.795 145.217 276.835 145.522C276.875 145.828 276.976 146.122 277.13 146.388C277.285 146.653 277.491 146.886 277.737 147.071C278.237 147.444 278.864 147.605 279.482 147.52C280.101 147.435 280.662 147.111 281.044 146.617V146.617Z" fill="url(#paint5_linear)"/>
<path opacity="0.5" d="M294.001 173.93L306.439 174.29C306.747 174.301 307.054 174.25 307.342 174.141C307.63 174.032 307.893 173.867 308.117 173.656C308.341 173.445 308.52 173.191 308.645 172.91C308.77 172.629 308.837 172.326 308.844 172.019C308.853 171.393 308.615 170.788 308.18 170.337C307.745 169.885 307.149 169.623 306.522 169.608L294.091 169.251C293.784 169.241 293.477 169.292 293.189 169.401C292.901 169.51 292.638 169.676 292.414 169.887C292.191 170.099 292.012 170.353 291.888 170.634C291.763 170.915 291.696 171.218 291.69 171.526C291.683 172.149 291.92 172.75 292.352 173.2C292.785 173.649 293.376 173.912 294.001 173.93V173.93Z" fill="url(#paint6_linear)"/>
</g>
<defs>
<linearGradient id="paint0_linear" x1="178.892" y1="239.447" x2="178.892" y2="333.772" gradientUnits="userSpaceOnUse">
<stop stop-color="#196560"/>
<stop offset="1" stop-color="#11423D"/>
</linearGradient>
<linearGradient id="paint1_linear" x1="183.534" y1="236.592" x2="252.043" y2="237.499" gradientUnits="userSpaceOnUse">
<stop stop-color="#F5F7FE"/>
<stop offset="1" stop-color="#5D8986"/>
</linearGradient>
<linearGradient id="paint2_linear" x1="191.409" y1="167.072" x2="310.95" y2="222.056" gradientUnits="userSpaceOnUse">
<stop stop-color="#F5F7FE"/>
<stop offset="1" stop-color="#60A29C"/>
</linearGradient>
<linearGradient id="paint3_linear" x1="291.704" y1="185.168" x2="251.764" y2="178.578" gradientUnits="userSpaceOnUse">
<stop stop-color="#0B4540"/>
<stop offset="1" stop-color="#15524D"/>
</linearGradient>
<linearGradient id="paint4_linear" x1="303.788" y1="154.271" x2="288.015" y2="154.54" gradientUnits="userSpaceOnUse">
<stop stop-color="#69C1B7"/>
<stop offset="1" stop-color="#29B6AB"/>
</linearGradient>
<linearGradient id="paint5_linear" x1="290.129" y1="136.944" x2="275.823" y2="143.602" gradientUnits="userSpaceOnUse">
<stop stop-color="#69C1B7"/>
<stop offset="1" stop-color="#29B6AB"/>
</linearGradient>
<linearGradient id="paint6_linear" x1="307.166" y1="175.588" x2="293.385" y2="167.923" gradientUnits="userSpaceOnUse">
<stop stop-color="#69C1B7"/>
<stop offset="1" stop-color="#29B6AB"/>
</linearGradient>
</defs>
</svg>
