<svg width="52" height="52" viewBox="0 0 52 52" fill="none" xmlns="http://www.w3.org/2000/svg">
<path d="M17.4664 9.21372C19.1224 9.21372 20.5988 9.56286 21.8956 10.2612C23.2124 10.9395 24.2399 11.9271 24.9781 13.2239C25.7362 14.5208 26.1153 16.0371 26.1153 17.7728C26.1153 19.5086 25.7362 21.0249 24.9781 22.3217C24.2399 23.6186 23.2124 24.6161 21.8956 25.3144C20.5988 25.9928 19.1224 26.3319 17.4664 26.3319C15.8105 26.3319 14.3241 25.9928 13.0073 25.3144C11.6905 24.6161 10.653 23.6186 9.8949 22.3217C9.1567 21.0249 8.7876 19.5086 8.7876 17.7728C8.7876 16.0371 9.1567 14.5208 9.8949 13.2239C10.653 11.9271 11.6905 10.9395 13.0073 10.2612C14.3241 9.56286 15.8105 9.21372 17.4664 9.21372ZM17.4664 13.6429C16.4888 13.6429 15.6608 14.002 14.9825 14.7203C14.3241 15.4186 13.9949 16.4361 13.9949 17.7728C13.9949 19.1096 14.3241 20.1271 14.9825 20.8254C15.6608 21.5237 16.4888 21.8728 17.4664 21.8728C18.444 21.8728 19.262 21.5237 19.9204 20.8254C20.5788 20.1271 20.908 19.1096 20.908 17.7728C20.908 16.4361 20.5788 15.4186 19.9204 14.7203C19.262 14.002 18.444 13.6429 17.4664 13.6429Z" fill="#0F1933"/>
<path d="M35.0098 31.4009C36.6658 31.4009 38.1422 31.7501 39.439 32.4484C40.7558 33.1267 41.7833 34.1143 42.5215 35.4112C43.2796 36.708 43.6587 38.2243 43.6587 39.9601C43.6587 41.6958 43.2796 43.2121 42.5215 44.5089C41.7833 45.8058 40.7558 46.8033 39.439 47.5016C38.1422 48.18 36.6658 48.5192 35.0098 48.5192C33.3538 48.5192 31.8675 48.18 30.5507 47.5016C29.2339 46.8033 28.1964 45.8058 27.4383 44.5089C26.7001 43.2121 26.331 41.6958 26.331 39.9601C26.331 38.2243 26.7001 36.708 27.4383 35.4112C28.1964 34.1143 29.2339 33.1267 30.5507 32.4484C31.8675 31.7501 33.3538 31.4009 35.0098 31.4009ZM35.0098 35.8301C34.0322 35.8301 33.2042 36.1893 32.5259 36.9075C31.8675 37.6058 31.5383 38.6233 31.5383 39.9601C31.5383 41.2968 31.8675 42.3143 32.5259 43.0126C33.2042 43.7109 34.0322 44.06 35.0098 44.06C35.9874 44.06 36.8054 43.7109 37.4638 43.0126C38.1222 42.3143 38.4514 41.2968 38.4514 39.9601C38.4514 38.6233 38.1222 37.6058 37.4638 36.9075C36.8054 36.1893 35.9874 35.8301 35.0098 35.8301Z" fill="#0F1933"/>
<path d="M39.9336 6.90987L19.3625 48.9432L12.9171 47.4772L33.4882 5.44384L39.9336 6.90987Z" fill="#0F1933"/>
<path d="M14.6788 6.66577C16.3348 6.66577 17.8112 7.01492 19.108 7.71322C20.4248 8.39156 21.4523 9.37915 22.1905 10.676C22.9486 11.9728 23.3277 13.4891 23.3277 15.2249C23.3277 16.9606 22.9486 18.4769 22.1905 19.7738C21.4523 21.0706 20.4248 22.0682 19.108 22.7665C17.8112 23.4448 16.3348 23.784 14.6788 23.784C13.0229 23.784 11.5365 23.4448 10.2197 22.7665C8.90292 22.0682 7.86545 21.0706 7.1073 19.7738C6.3691 18.4769 6 16.9606 6 15.2249C6 13.4891 6.3691 11.9728 7.1073 10.676C7.86545 9.37915 8.90292 8.39156 10.2197 7.71322C11.5365 7.01492 13.0229 6.66577 14.6788 6.66577ZM14.6788 11.095C13.7012 11.095 12.8732 11.4541 12.1949 12.1723C11.5365 12.8706 11.2073 13.8881 11.2073 15.2249C11.2073 16.5616 11.5365 17.5791 12.1949 18.2774C12.8732 18.9757 13.7012 19.3249 14.6788 19.3249C15.6564 19.3249 16.4744 18.9757 17.1328 18.2774C17.7912 17.5791 18.1204 16.5616 18.1204 15.2249C18.1204 13.8881 17.7912 12.8706 17.1328 12.1723C16.4744 11.4541 15.6564 11.095 14.6788 11.095Z" fill="#46B8B0"/>
<path d="M32.2222 28.853C33.8782 28.853 35.3546 29.2021 36.6514 29.9004C37.9682 30.5788 38.9957 31.5664 39.7339 32.8632C40.492 34.16 40.8711 35.6763 40.8711 37.4121C40.8711 39.1479 40.492 40.6642 39.7339 41.961C38.9957 43.2578 37.9682 44.2554 36.6514 44.9537C35.3546 45.632 33.8782 45.9712 32.2222 45.9712C30.5662 45.9712 29.0799 45.632 27.7631 44.9537C26.4463 44.2554 25.4088 43.2578 24.6507 41.961C23.9125 40.6642 23.5434 39.1479 23.5434 37.4121C23.5434 35.6763 23.9125 34.16 24.6507 32.8632C25.4088 31.5664 26.4463 30.5788 27.7631 29.9004C29.0799 29.2021 30.5662 28.853 32.2222 28.853ZM32.2222 33.2822C31.2446 33.2822 30.4166 33.6413 29.7383 34.3596C29.0799 35.0579 28.7507 36.0754 28.7507 37.4121C28.7507 38.7488 29.0799 39.7664 29.7383 40.4647C30.4166 41.163 31.2446 41.5121 32.2222 41.5121C33.1998 41.5121 34.0178 41.163 34.6762 40.4647C35.3346 39.7664 35.6638 38.7488 35.6638 37.4121C35.6638 36.0754 35.3346 35.0579 34.6762 34.3596C34.0178 33.6413 33.1998 33.2822 32.2222 33.2822Z" fill="#46B8B0"/>
<path d="M37.146 4.36193L16.5749 46.3953L10.1295 44.9292L30.7006 2.8959L37.146 4.36193Z" fill="#46B8B0"/>
</svg>
