<svg width="40" height="40" viewBox="0 0 40 40" fill="none" xmlns="http://www.w3.org/2000/svg">
<path d="M18.3169 12.6245C18.4139 12.0286 19.0129 11.6539 19.5913 11.8274L22.5745 12.7224C23.0907 12.8772 23.3913 13.4133 23.2543 13.9345L21.0529 22.307L16.9209 21.1996L18.3169 12.6245Z" fill="#A2DCD8"/>
<path d="M33.9237 13.4556C33.7592 12.895 33.4039 12.6615 33.1347 12.5644C32.7338 12.4197 32.3046 12.5009 31.9633 12.6269C31.8657 12.5007 31.7465 12.3929 31.6112 12.3084C31.4754 12.2253 31.3243 12.1704 31.1668 12.1471C31.0093 12.1238 30.8487 12.1325 30.6947 12.1728C29.9447 12.3549 29.1275 13.5101 28.7352 14.1306L27.2267 14.973L25.0356 10.4743C24.9887 10.378 24.9178 10.2953 24.8298 10.2343C24.7417 10.1733 24.6395 10.1359 24.5328 10.1258L23.3798 10.0164L23.3827 9.71242L24.3691 9.83875C24.5083 9.85658 24.6498 9.84448 24.7841 9.80327C24.9183 9.76205 25.0422 9.69266 25.1475 9.59974C25.2527 9.50681 25.337 9.39249 25.3945 9.26441C25.4521 9.13634 25.4817 8.99745 25.4812 8.85703L25.4795 8.19469L25.8605 8.04289C25.9416 8.01056 26.0151 7.96157 26.0762 7.89908C26.1373 7.8366 26.1845 7.762 26.215 7.68011C26.2455 7.59822 26.2584 7.51085 26.253 7.42365C26.2476 7.33644 26.224 7.25134 26.1837 7.17383L25.4146 5.69531L25.413 4.41117C25.7319 4.34647 26.0186 4.1734 26.2244 3.92135C26.4303 3.66929 26.5425 3.35378 26.5422 3.02836L26.5408 1.87422C26.5406 1.70859 26.4746 1.54982 26.3574 1.43278C26.2403 1.31574 26.0814 1.25 25.9158 1.25H25.915L21.0202 1.25602C20.1843 1.25794 19.3833 1.59138 18.793 2.18316C18.2026 2.77495 17.8711 3.57676 17.8713 4.41266L17.8736 6.33766C17.8736 6.8894 18.0851 7.42015 18.4646 7.82062L19.2698 8.67258L19.2626 9.6257L17.9345 9.49961C17.8461 9.4914 17.7569 9.50205 17.673 9.53086L11.4273 11.6687C11.3044 11.7108 11.1976 11.7901 11.1219 11.8957C11.0461 12.0013 11.0052 12.1278 11.0047 12.2577L10.9841 17.7912C10.9444 18.1027 10.7552 19.6239 10.7745 20.1756C10.8186 21.4238 11.4655 22.1705 12.7524 22.4584C13.3227 22.5859 13.6989 22.388 13.9141 22.1997C14.2345 21.9192 14.3716 21.5044 14.4267 21.1445C14.5843 21.1203 14.7364 21.0682 14.8758 20.9907C15.0143 20.9122 15.1356 20.8065 15.2322 20.68C15.3289 20.5535 15.399 20.4087 15.4383 20.2544C15.6405 19.5157 15.036 18.2545 14.6819 17.606L14.7888 15.1451L16.6225 14.6343C16.2988 16.5512 15.8959 18.9114 15.8431 19.1327C15.5672 20.2988 15.5228 21.1992 15.6462 21.9202L13.9884 26.9858H5.5332C5.36744 26.9858 5.20847 27.0516 5.09126 27.1688C4.97405 27.286 4.9082 27.445 4.9082 27.6108V34.0674C4.9082 34.2332 4.97405 34.3922 5.09126 34.5094C5.20847 34.6266 5.36744 34.6924 5.5332 34.6924H6.82047C7.28261 34.6913 7.7287 34.5228 8.07618 34.2181C8.42366 33.9134 8.64902 33.4932 8.71055 33.0352L8.90508 31.5595H16.4449C16.5535 31.5595 16.6602 31.5312 16.7545 31.4774C16.8488 31.4236 16.9275 31.3462 16.9828 31.2527L20.067 26.0412C21.1696 26.7341 21.9545 27.2877 22.3513 27.577L20.7712 36.8926C20.7569 36.9734 20.7586 37.0563 20.7762 37.1365C20.7939 37.2167 20.8272 37.2926 20.8742 37.36C20.9212 37.4273 20.981 37.4847 21.0503 37.5289C21.1195 37.5731 21.1967 37.6032 21.2776 37.6175L27.619 38.7411C27.6998 38.7555 27.7827 38.7538 27.8628 38.7362C27.943 38.7185 28.0189 38.6852 28.0862 38.6382C28.1535 38.5912 28.2108 38.5313 28.255 38.4621C28.2991 38.3929 28.3292 38.3157 28.3434 38.2348L28.498 37.3636C28.5758 36.9215 28.5061 36.466 28.2996 36.0674C28.093 35.6689 27.7611 35.3493 27.3549 35.158L25.851 34.4522L27.4898 26.2017C27.5094 26.1032 27.505 26.0015 27.4769 25.9051C27.4488 25.8087 27.3979 25.7204 27.3284 25.6479L22.8963 21.0151L23.859 17.1455L25.2689 19.582C25.3511 19.724 25.4858 19.8281 25.644 19.8716C25.8022 19.9151 25.9712 19.8947 26.1145 19.8148L30.7033 17.2534C31.0016 17.1362 32.4118 16.5751 32.8841 16.2915C33.955 15.6484 34.295 14.7209 33.9237 13.4556ZM24.622 7.19055C24.5055 7.23693 24.4057 7.31726 24.3354 7.42111C24.2652 7.52496 24.2279 7.64753 24.2282 7.77289L24.2303 8.5607L22.8439 8.38281C22.7563 8.3716 22.6674 8.37906 22.5829 8.40471C22.4984 8.43036 22.4203 8.47362 22.3538 8.53164C22.2873 8.58965 22.2337 8.66111 22.1968 8.7413C22.1599 8.82149 22.1404 8.90859 22.1395 8.99687L22.1272 10.3116C22.1246 10.5156 22.042 10.7104 21.8971 10.8541C21.7522 10.9977 21.5567 11.0787 21.3527 11.0795H21.2841H21.2831C21.1808 11.0795 21.0795 11.0593 20.9851 11.0199C20.8906 10.9806 20.8049 10.9229 20.7328 10.8503C20.6608 10.7777 20.6038 10.6915 20.5652 10.5968C20.5266 10.502 20.5071 10.4006 20.5079 10.2983L20.5215 8.49226L21.081 5.82086C21.0984 5.73606 21.1443 5.65978 21.2111 5.60477C21.278 5.54976 21.3616 5.51934 21.4482 5.51859H21.4669C21.4936 5.51755 21.52 5.52417 21.543 5.53766C21.5661 5.55116 21.5848 5.57098 21.597 5.59477L22.0332 6.39891C22.089 6.50174 22.1725 6.58685 22.2743 6.64455C22.3761 6.70224 22.492 6.73021 22.6089 6.72527C22.7258 6.72033 22.839 6.68268 22.9355 6.6166C23.0321 6.55052 23.1082 6.45866 23.1551 6.35148L23.9923 4.44016H24.1634L24.1652 5.84945C24.1652 5.94958 24.1894 6.04823 24.2355 6.13711L24.7559 7.13711L24.622 7.19055ZM19.1213 4.41109C19.1212 3.90662 19.3213 3.42273 19.6776 3.06558C20.0338 2.70843 20.5172 2.50719 21.0217 2.50602L25.2915 2.50078L25.2922 3.02984C25.2922 3.07191 25.2755 3.11226 25.2458 3.14204C25.2161 3.17182 25.1758 3.18859 25.1337 3.18867L23.5823 3.19062C23.461 3.19077 23.3423 3.22625 23.2407 3.29273C23.1392 3.35921 23.0592 3.45382 23.0105 3.565L22.5022 4.72609C22.3715 4.58187 22.212 4.46666 22.034 4.38792C21.8561 4.30918 21.6635 4.26867 21.4689 4.26898C21.4626 4.26898 21.4562 4.26898 21.4498 4.26898H21.431C21.06 4.27228 20.7013 4.40275 20.4149 4.63863C20.1285 4.8745 19.9317 5.20149 19.8573 5.565L19.53 7.1275L19.3732 6.96148C19.213 6.7926 19.1237 6.56872 19.1236 6.33594L19.1213 4.41109ZM13.5064 18.0639C13.9116 18.7779 14.2491 19.6383 14.233 19.9095C14.1544 19.919 14.0748 19.9146 13.9978 19.8964C13.9004 19.869 13.7979 19.8656 13.6989 19.8866C13.6 19.9076 13.5076 19.9522 13.4297 20.0168C13.3518 20.0813 13.2907 20.1638 13.2518 20.2571C13.2128 20.3505 13.197 20.4519 13.2059 20.5527C13.2278 20.8037 13.1733 21.1534 13.1002 21.248C13.0749 21.2481 13.0496 21.2448 13.0251 21.2381C12.3678 21.0911 12.0502 20.888 12.0235 20.1312C12.0109 19.7707 12.1426 18.5786 12.2285 17.9119C12.2318 17.8861 12.2336 17.8602 12.2337 17.8342L12.2528 12.7069L13.9416 12.1287L14.446 13.9423L14.0163 14.062C13.8893 14.0974 13.7767 14.1721 13.6946 14.2754C13.6126 14.3787 13.5653 14.5053 13.5596 14.637L13.4253 17.7281C13.4203 17.8454 13.4484 17.9618 13.5064 18.0639ZM6.82047 33.4417H6.1582V28.2351H7.32914C7.16922 28.6394 7.08394 29.0694 7.07742 29.5041C7.08581 30.1091 7.30527 30.6922 7.69789 31.1526L7.47133 32.8713C7.45009 33.029 7.37246 33.1736 7.2528 33.2785C7.13315 33.3834 6.97957 33.4413 6.82047 33.4417ZM8.6225 30.3089C8.43587 30.0818 8.33182 29.7981 8.32734 29.5042C8.32734 28.9987 8.54836 28.5144 8.70422 28.2352H9.63188L9.63547 30.3088L8.6225 30.3089ZM16.0886 30.3089H10.8855L10.8819 28.2352H14.4414C14.5731 28.2352 14.7015 28.1935 14.8081 28.1162C14.9147 28.0388 14.9942 27.9298 15.0352 27.8046L15.6133 26.0373L17.8633 27.3089L16.0886 30.3089ZM18.5007 26.233L16.0103 24.8256L16.4178 23.5804C16.9498 24.1924 17.6821 24.6188 18.458 25.0701C18.5711 25.1359 18.9351 25.3499 19.0003 25.3887L18.5007 26.233ZM24.5802 34.4332C24.3217 34.5778 24.022 34.6312 23.7294 34.5848C23.3109 34.5102 22.8456 34.2061 22.5497 33.9755L22.6882 33.1461L24.7578 33.5379L24.5802 34.4332ZM27.2673 37.1445L27.2219 37.4005L22.1115 36.4951L22.318 35.3344C22.683 35.5653 23.0867 35.7282 23.5097 35.8152C24.0878 35.9107 24.6812 35.808 25.1936 35.5237L26.8238 36.2889C26.9814 36.3631 27.1102 36.4871 27.1903 36.6417C27.2705 36.7963 27.2975 36.973 27.2673 37.1445ZM25.0017 32.3119L22.8945 31.913L23.6473 27.4052C23.6658 27.2939 23.6539 27.1797 23.6128 27.0746C23.5717 26.9695 23.5029 26.8775 23.4137 26.8084C23.3772 26.7801 22.8277 26.3562 21.8401 25.6977L23.8708 23.8407L26.2006 26.2759L25.0017 32.3119ZM23.0064 22.9375L20.7553 24.9961C20.3569 24.7456 19.2015 24.0562 19.0866 23.9894C17.2674 22.9314 16.3543 22.4004 17.0595 19.4198C17.0673 19.3854 17.0814 19.3166 17.0995 19.2205L19.7159 19.8129C19.7959 19.831 19.8788 19.8333 19.9597 19.8194C20.0406 19.8055 20.1179 19.7759 20.1874 19.7321C20.2568 19.6883 20.317 19.6313 20.3644 19.5643C20.4118 19.4973 20.4455 19.4216 20.4637 19.3416C20.4818 19.2615 20.484 19.1787 20.4702 19.0978C20.4563 19.0169 20.4267 18.9395 20.3829 18.87C20.3391 18.8006 20.2821 18.7405 20.2151 18.6931C20.1481 18.6456 20.0724 18.6119 19.9923 18.5937L17.3188 17.9884C17.584 16.4591 17.959 14.2273 18.0188 13.8712C18.0362 13.7675 18.0272 13.6611 17.9925 13.5618C17.9579 13.4625 17.8987 13.3735 17.8205 13.3032C17.7423 13.2328 17.6477 13.1834 17.5453 13.1593C17.4429 13.1353 17.3361 13.1375 17.2348 13.1657L15.6508 13.607L15.1273 11.7233L17.9511 10.7567L19.3433 10.8888C19.4693 11.3055 19.7259 11.6705 20.0754 11.9301C20.4248 12.1896 20.8485 12.3299 21.2837 12.3302H21.2863H21.3548C21.7225 12.3285 22.0828 12.227 22.3973 12.0367C22.7118 11.8463 22.9688 11.5741 23.1408 11.2492L24.0653 11.337L25.5966 14.4805L24.3355 15.2305L24.5131 14.5165C24.5531 14.3556 24.5276 14.1854 24.4421 14.0434C24.3567 13.9013 24.2183 13.7991 24.0574 13.7591C23.8966 13.7191 23.7264 13.7446 23.5843 13.83C23.4423 13.9155 23.34 14.0539 23.3 14.2148L22.0923 19.0692L21.8278 19.0093C21.7478 18.9912 21.6649 18.989 21.584 19.0029C21.5031 19.0168 21.4258 19.0464 21.3563 19.0902C21.2869 19.134 21.2268 19.191 21.1794 19.2581C21.132 19.3251 21.0983 19.4008 21.0802 19.4808C21.0621 19.5609 21.0599 19.6437 21.0738 19.7246C21.0877 19.8055 21.1173 19.8829 21.1611 19.9523C21.2049 20.0217 21.2619 20.0818 21.329 20.1292C21.396 20.1766 21.4717 20.2103 21.5517 20.2284L21.7905 20.2825L21.6002 21.0469C21.5747 21.1492 21.5756 21.2564 21.6027 21.3583C21.6298 21.4602 21.6822 21.5536 21.7552 21.6298L23.0064 22.9375ZM32.2408 15.2197C31.9323 15.4049 30.8298 15.861 30.2074 16.105C30.1812 16.1153 30.1556 16.1274 30.131 16.1412L26.0428 18.4224L24.8574 16.3741L26.1458 15.6079L26.3923 16.1141C26.4296 16.1906 26.482 16.2586 26.5464 16.3141C26.6109 16.3696 26.6859 16.4113 26.767 16.4368C26.8482 16.4622 26.9336 16.4709 27.0182 16.4622C27.1028 16.4535 27.1847 16.4276 27.2589 16.3862L29.4855 15.143C29.5793 15.0905 29.658 15.0148 29.7141 14.9232C30.1425 14.2229 30.732 13.5111 30.977 13.3937C31.0233 13.4578 31.0579 13.5296 31.0793 13.6057C31.1025 13.7041 31.1492 13.7954 31.2155 13.8718C31.2817 13.9482 31.3655 14.0074 31.4597 14.0442C31.5538 14.0811 31.6555 14.0946 31.756 14.0835C31.8565 14.0725 31.9528 14.0372 32.0367 13.9807C32.2457 13.8401 32.577 13.7179 32.6965 13.7365C32.7083 13.7588 32.7176 13.7824 32.7242 13.8068C32.9142 14.4538 32.8899 14.83 32.2407 15.2198L32.2408 15.2197Z" fill="#0F1933"/>
</svg>
