<svg width="32" height="32" viewBox="0 0 32 32" fill="none" xmlns="http://www.w3.org/2000/svg">
<g clip-path="url(#clip0_192_7834)">
<path d="M22.2164 17.1475H18.2027C17.1042 17.1475 16.2109 18.0407 16.2109 19.1392V22.2174C16.2109 23.3159 17.1042 24.2092 18.2027 24.2092H22.2164C23.3149 24.2092 24.2082 23.3159 24.2082 22.2174V19.1392C24.2082 18.0407 23.3149 17.1475 22.2164 17.1475ZM22.7596 22.2174C22.7596 22.5192 22.5122 22.7606 22.2164 22.7606H18.2027C17.9009 22.7606 17.6595 22.5132 17.6595 22.2174V19.1392C17.6595 18.8374 17.907 18.596 18.2027 18.596H22.2164C22.5182 18.596 22.7596 18.8435 22.7596 19.1392V22.2174Z" fill="#0F1933"/>
<path d="M30.7689 11.5534C30.7689 11.4267 30.7388 11.306 30.6724 11.1973L26.2784 3.47169C26.1517 3.24837 25.9102 3.10352 25.6507 3.10352H6.34266C6.08313 3.10352 5.8417 3.24234 5.71496 3.47169L1.32704 11.1973C1.26668 11.306 1.23047 11.4267 1.23047 11.5534C1.23047 13.2857 2.27464 14.7704 3.76544 15.4283V28.1696C3.76544 28.5679 4.09137 28.8938 4.48972 28.8938H8.49135C8.49739 28.8938 8.50342 28.8938 8.50946 28.8938H14.1226C14.1286 28.8938 14.1347 28.8938 14.1407 28.8938H27.5036C27.902 28.8938 28.2279 28.5679 28.2279 28.1696V15.5188C28.2279 15.4887 28.2279 15.4645 28.2219 15.4404C29.7187 14.7825 30.7689 13.2917 30.7689 11.5534ZM6.76516 4.55811H25.2282L28.6625 10.5998H3.33691L6.76516 4.55811ZM22.2526 12.0423C22.0233 13.346 20.8825 14.3359 19.5124 14.3359C18.1424 14.3359 17.0016 13.346 16.7723 12.0423H22.2526ZM15.2332 12.0423C15.0038 13.346 13.8631 14.3359 12.493 14.3359C11.1229 14.3359 9.98216 13.346 9.74677 12.0423H15.2332ZM2.72731 12.0423H8.21371C7.98436 13.346 6.83759 14.3359 5.46749 14.3359C4.0974 14.3419 2.95666 13.346 2.72731 12.0423ZM13.3983 27.4453H9.23374V19.6291C9.23374 19.0618 9.69245 18.597 10.2658 18.597H12.3723C12.9396 18.597 13.4044 19.0557 13.4044 19.6291V27.4453H13.3983ZM26.7794 27.4453H14.8469V19.6291C14.8469 18.2651 13.7363 17.1485 12.3662 17.1485H10.2598C8.89574 17.1485 7.77915 18.259 7.77915 19.6291V27.4513H5.214V15.7844C5.2985 15.7904 5.38299 15.7904 5.46749 15.7904C6.92812 15.7904 8.21975 15.0481 8.98024 13.9194C9.74073 15.0481 11.0324 15.7904 12.493 15.7904C13.9536 15.7904 15.2392 15.0481 16.0057 13.9194C16.7662 15.0481 18.0579 15.7904 19.5124 15.7904C20.9731 15.7904 22.2587 15.0481 23.0192 13.9194C23.7797 15.0481 25.0713 15.7904 26.5319 15.7904C26.6164 15.7904 26.6949 15.7844 26.7794 15.7844V27.4453ZM26.5319 14.3419C25.1618 14.3419 24.0211 13.352 23.7917 12.0483H29.2781C29.0427 13.346 27.902 14.3419 26.5319 14.3419Z" fill="#0F1933"/>
</g>
<defs>
<clipPath id="clip0_192_7834">
<rect width="29.5385" height="29.5385" fill="white" transform="translate(1.23047 1.23047)"/>
</clipPath>
</defs>
</svg>
