<svg width="96" height="96" viewBox="0 0 96 96" fill="none" xmlns="http://www.w3.org/2000/svg">
<g clip-path="url(#clip0_1_366)">
<circle cx="47.9998" cy="51.84" r="44.16" fill="#E3F4F3"/>
<path d="M33.7284 51.2554C33.8928 51.075 35.5797 49.351 34.9537 48.306C34.4233 49.4041 33.4048 51.0697 30.2857 51.3456C30.6332 50.3991 30.8127 49.3991 30.8161 48.3909C30.309 49.5404 29.5428 50.5571 28.5776 51.3615C26.6436 51.2172 24.7342 50.8396 22.891 50.2369C15.0295 50.9583 14.8385 44.7678 14.7749 43.3886C14.5712 44.3113 14.4804 45.2554 14.5044 46.2001C12.8069 43.5053 13.0774 39.4154 15.316 38.6516C15.7244 29.9519 22.0104 29.1775 23.5912 28.8327C26.4451 28.2067 31.4262 25.8143 33.8928 30.9545C37.3567 32.8165 38.667 37.1928 37.187 43.866C40.1576 48.6455 34.0413 51.1334 33.7284 51.2554Z" fill="#0F1933"/>
<path d="M11.0826 61.4403C10.897 61.1698 10.7909 61 10.6582 60.7878L10.2922 60.1831C10.0588 59.7853 9.84133 59.3821 9.62914 58.9789C9.20477 58.1726 8.8087 57.3575 8.44091 56.5335C7.70548 54.8778 7.08686 53.1726 6.58959 51.4304C6.08184 49.6804 5.70593 47.8949 5.46501 46.0887C5.33239 45.1816 5.25812 44.2692 5.20508 43.3515C5.20508 42.89 5.16263 42.4338 5.16794 41.9723V41.2827C5.16794 40.9856 5.16795 40.662 5.21569 40.3915C5.31886 39.3929 5.51239 38.4057 5.79389 37.4421C6.04321 36.5403 6.32436 35.6916 6.63203 34.8587C7.24206 33.1931 7.93166 31.607 8.65309 30.0474C10.1059 26.9485 11.739 23.9374 13.544 21.0295C13.763 20.6835 14.1016 20.43 14.4952 20.3172C14.8889 20.2043 15.3103 20.2399 15.6794 20.4173C16.0486 20.5946 16.3397 20.9014 16.4976 21.2793C16.6554 21.6572 16.669 22.0799 16.5358 22.4671V22.4989C15.4271 25.6075 14.3344 28.7584 13.3265 31.8616C12.8278 33.4212 12.3557 34.9754 11.9685 36.5032C11.7722 37.2618 11.5919 38.0203 11.438 38.7524C11.311 39.4104 11.2347 40.0772 11.2099 40.7469C11.2099 40.8901 11.2099 40.9856 11.2099 41.1076L11.2577 41.6752C11.2842 42.0465 11.3372 42.4232 11.3744 42.7998C11.4858 43.5478 11.5919 44.2957 11.7457 45.0384C12.0448 46.5341 12.4363 48.0098 12.918 49.4571C13.4015 50.9149 13.9629 52.3456 14.5996 53.7433C14.9126 54.4488 15.2468 55.1384 15.5969 55.8121L16.1273 56.8041L16.3979 57.2868L16.6419 57.6952L16.7321 57.8438C17.157 58.595 17.2764 59.481 17.0655 60.3179C16.8545 61.1548 16.3294 61.8783 15.5992 62.3383C14.8689 62.7983 13.9895 62.9595 13.1436 62.7883C12.2976 62.6171 11.5501 62.1268 11.0561 61.4191L11.0826 61.4403Z" fill="#EEC1BB"/>
<path d="M19.4855 19.5601C19.4118 20.3374 19.055 21.0605 18.4829 21.5918L15.8571 23.8569C15.6781 24.0149 15.4548 24.114 15.2175 24.1406C14.9802 24.1672 14.7405 24.12 14.5309 24.0054L13.0934 23.2628C13.0183 21.2093 13.4771 19.1714 14.4249 17.3481L15.072 14.8496C15.0835 14.7568 15.1167 14.6681 15.1689 14.5906C15.2211 14.513 15.2909 14.4489 15.3726 14.4034C15.4542 14.3579 15.5455 14.3324 15.6389 14.3288C15.7323 14.3252 15.8252 14.3437 15.9101 14.3828L19.3422 16.1705C19.5065 16.2733 19.6369 16.4222 19.7171 16.5986C19.7972 16.775 19.8237 16.9711 19.7931 17.1624L19.4855 19.5601Z" fill="#EEC1BB"/>
<path d="M12.9184 65.5567C21.6074 62.6126 17.4645 56.2683 15.1146 50.2899C12.8336 48.5606 6.09667 55.6741 6.09667 55.6741C6.09667 55.6741 4.38327 64.8989 12.9184 65.5567Z" fill="#E39700"/>
<path d="M6.42001 60.7029C5.76875 64.0217 5.28717 67.3715 4.97715 70.7393C4.44668 75.1156 4.08067 79.4389 3.58203 86.6532L25.469 90.1225C25.9994 83.8842 27.8348 76.9723 33.9564 63.7213C34.3023 63.0325 34.49 62.2751 34.5056 61.5045C34.5212 60.7339 34.3643 59.9696 34.0465 59.2674C33.7288 58.5652 33.258 57.9429 32.6688 57.446C32.0796 56.9492 31.3868 56.5903 30.641 56.3956C29.787 56.1728 28.8799 55.9553 27.9409 55.759C24.671 54.9935 21.3508 54.4617 18.0054 54.1676C16.9073 54.0987 15.7668 54.0562 14.674 54.035C12.7384 54.0165 10.8564 54.6715 9.35063 55.888C7.84482 57.1045 6.8088 58.8066 6.42001 60.7029Z" fill="#E39700"/>
<path d="M29.0228 44.4707C27.6489 47.5315 25.6597 53.2181 27.3996 55.6847C27.3996 55.6847 24.4449 54.7458 17.3845 57.7058C15.9416 54.7405 17.464 54.1093 17.464 54.1093C21.225 53.8334 21.7502 51.2023 21.7077 48.6508L29.0228 44.4707Z" fill="#EEC1BB"/>
<path d="M18.8594 57.1329C20.9335 57.7695 21.0873 61.0743 21.0873 61.0743C21.0873 61.0743 26.7474 58.2787 28.7578 55.9977C28.1758 55.5353 27.618 55.0431 27.0869 54.523C27.0869 54.523 20.2916 56.072 18.8594 57.1329Z" fill="white"/>
<path d="M16.8914 56.4592C16.8914 56.4592 14.9818 56.6661 13.9155 59.1115C14.1702 54.3692 16.4724 53.9236 16.4724 53.9236C17.1023 53.6808 17.7999 53.6808 18.4298 53.9236C17.915 54.0963 17.4781 54.4457 17.1965 54.9099C16.9149 55.374 16.8068 55.9229 16.8914 56.4592Z" fill="white"/>
<path opacity="0.2" d="M26.0368 46.1735L21.7082 48.6455C21.7283 49.245 21.6946 49.845 21.6074 50.4385C23.0132 50.4385 25.2358 49.2767 25.7132 47.8922C25.9249 47.3438 26.0346 46.7614 26.0368 46.1735Z" fill="black"/>
<path d="M32.768 38.4818C30.9803 43.4947 30.3279 45.643 26.9912 47.6535C21.9678 50.6772 16.191 47.7437 16.4456 42.386C16.6684 37.5694 19.5541 30.1853 25.1452 29.3207C30.6833 28.4878 34.5557 33.4742 32.768 38.4818Z" fill="#EEC1BB"/>
<path d="M31.3784 31.4531C28.673 33.0764 28.7632 41.8078 33.2616 41.1712C37.431 36.1212 34.28 29.9095 31.3784 31.4531Z" fill="#0F1933"/>
<path d="M33.8982 30.9067C30.7737 35.8135 18.9656 31.5645 16.1807 29.2252C18.1858 29.8246 21.5649 29.2994 24.005 28.6947C26.4451 28.09 33.2086 24.9072 33.8982 30.9067Z" fill="#0F1933"/>
<path d="M18.1855 28.2651C21.5511 29.1173 25.0866 29.0237 28.4023 27.9945L31.9723 27.7028C29.3677 25.9841 22.3019 28.1961 18.1855 28.2651Z" fill="#0F1933"/>
<path d="M26.0368 38.3015C25.9042 38.7258 25.5753 39.0176 25.2994 38.9539C25.0236 38.8903 24.9016 38.4924 25.0342 38.0627C25.1668 37.6331 25.501 37.3413 25.7769 37.4103C26.0527 37.4792 26.1694 37.8718 26.0368 38.3015Z" fill="#263238"/>
<path d="M20.695 36.8692C20.5624 37.2989 20.2282 37.5906 19.9524 37.527C19.6765 37.4633 19.5598 37.0602 19.6924 36.6358C19.825 36.2114 20.1539 35.9144 20.4298 35.978C20.7056 36.0417 20.8223 36.4448 20.695 36.8692Z" fill="#263238"/>
<path d="M20.5461 36.0311L19.623 35.5006C19.623 35.5006 19.8936 36.4448 20.5461 36.0311Z" fill="#263238"/>
<path d="M22.0477 38.1953C21.3665 39.0807 20.577 39.8773 19.6978 40.5665C20.0744 41.219 21.1353 41.219 21.1353 41.219L22.0477 38.1953Z" fill="#D4827D"/>
<path d="M23.0609 43.3409C22.8161 43.329 22.5729 43.2952 22.3341 43.2401C22.3177 43.2359 22.3023 43.2283 22.2889 43.2178C22.2756 43.2074 22.2645 43.1942 22.2565 43.1792C22.2486 43.1643 22.2438 43.1478 22.2425 43.1309C22.2413 43.1139 22.2436 43.0969 22.2492 43.0809C22.2591 43.0481 22.2809 43.0201 22.3104 43.0024C22.3398 42.9848 22.3747 42.9787 22.4084 42.9854C22.9493 43.1146 23.5123 43.1207 24.0558 43.0032C24.5993 42.8857 25.1095 42.6476 25.5487 42.3064C25.5735 42.2821 25.6068 42.2685 25.6416 42.2685C25.6763 42.2685 25.7096 42.2821 25.7344 42.3064C25.7463 42.3183 25.7557 42.3323 25.7621 42.3478C25.7685 42.3633 25.7718 42.3799 25.7718 42.3966C25.7718 42.4134 25.7685 42.43 25.7621 42.4454C25.7557 42.4609 25.7463 42.475 25.7344 42.4868C24.9787 43.0908 24.0268 43.3949 23.0609 43.3409Z" fill="#263238"/>
<path d="M33.1449 43.3409C32.7939 43.7769 32.3601 44.1392 31.8685 44.4068C31.3769 44.6745 30.8371 44.8422 30.2804 44.9004C28.8376 45.0224 28.4768 43.5637 29.1717 42.2481C29.803 41.0705 31.2936 39.5958 32.6092 40.0732C33.9247 40.5506 34.0467 42.211 33.1449 43.3409Z" fill="#EEC1BB"/>
<path d="M28.0842 35.1664C28.0506 35.162 28.0185 35.1502 27.99 35.1319C27.9616 35.1135 27.9376 35.0891 27.9197 35.0603C27.7522 34.7878 27.5184 34.5622 27.2401 34.4045C26.9619 34.2468 26.6482 34.1622 26.3284 34.1585C26.2952 34.1592 26.2622 34.1533 26.2313 34.1411C26.2005 34.1289 26.1723 34.1106 26.1486 34.0874C26.1249 34.0642 26.1061 34.0364 26.0932 34.0058C26.0803 33.9752 26.0737 33.9424 26.0737 33.9092C26.0777 33.8392 26.1076 33.7732 26.1576 33.7242C26.2077 33.6751 26.2742 33.6465 26.3443 33.644C26.745 33.6463 27.1387 33.7502 27.4884 33.9459C27.8381 34.1417 28.1325 34.4229 28.3441 34.7632C28.378 34.8235 28.3876 34.8945 28.3708 34.9615C28.354 35.0286 28.3122 35.0867 28.2539 35.1239C28.2035 35.1561 28.1439 35.171 28.0842 35.1664Z" fill="#263238"/>
<path d="M19.6181 34.0577C19.5862 34.0579 19.5546 34.0514 19.5254 34.0386C19.4961 34.0258 19.4699 34.007 19.4484 33.9834C19.4001 33.9348 19.373 33.869 19.373 33.8004C19.373 33.7319 19.4001 33.6661 19.4484 33.6174C19.7448 33.3198 20.1055 33.0943 20.5028 32.9582C20.9001 32.822 21.3234 32.779 21.74 32.8323C21.7724 32.839 21.8031 32.8524 21.8301 32.8716C21.8571 32.8908 21.8798 32.9154 21.8967 32.9438C21.9137 32.9723 21.9245 33.0039 21.9286 33.0368C21.9327 33.0696 21.9299 33.103 21.9204 33.1347C21.9017 33.2017 21.8588 33.2595 21.8 33.2967C21.7412 33.3339 21.6707 33.348 21.6021 33.3363C21.2716 33.2986 20.9369 33.3368 20.6234 33.448C20.3099 33.5592 20.026 33.7406 19.7932 33.9781C19.7455 34.0237 19.6838 34.0517 19.6181 34.0577Z" fill="#263238"/>
<path d="M25.9093 37.4633L24.9863 36.9328C24.9863 36.9328 25.241 37.8505 25.9093 37.4633Z" fill="#263238"/>
<path d="M19.6022 89.0085L20.695 87.7725C20.8983 87.5425 21.1536 87.3643 21.4395 87.2527C21.7255 87.141 22.034 87.0992 22.3394 87.1307L25.2304 87.4383C25.7996 87.4964 26.3464 87.6906 26.8246 88.0045C27.3029 88.3184 27.6986 88.7428 27.9782 89.2419L28.3337 89.8679C26.6574 92.0481 23.2412 93.1673 23.2412 93.1673L22.3023 93.597C22.1135 93.687 21.9089 93.7389 21.7 93.7497C21.4912 93.7605 21.2823 93.7301 21.0852 93.6601C20.8882 93.5902 20.7068 93.4821 20.5516 93.342C20.3963 93.2019 20.2702 93.0326 20.1804 92.8438L19.3052 90.9977C19.1584 90.6727 19.1083 90.3122 19.161 89.9594C19.2137 89.6066 19.3668 89.2765 19.6022 89.0085Z" fill="#EEC1BB"/>
<path d="M35.9879 63.2598C36.1683 63.6842 36.3062 64.029 36.4547 64.4056C36.6032 64.7822 36.7252 65.1482 36.8579 65.5196C37.1178 66.2622 37.3883 67.0049 37.5952 67.7528C38.0461 69.2487 38.4386 70.7712 38.7569 72.3148C39.0845 73.874 39.3254 75.4501 39.4784 77.0359C39.6345 78.6649 39.6735 80.3029 39.5951 81.9374V82.1072C39.5867 82.2649 39.5618 82.4214 39.5208 82.574C39.2471 83.5538 38.7578 84.4601 38.0885 85.2263C37.5639 85.8345 36.9732 86.3825 36.3274 86.8601C35.2142 87.67 34.013 88.3516 32.7468 88.8918C31.5742 89.4036 30.3692 89.8378 29.1396 90.1914C27.9209 90.5495 26.6807 90.8294 25.4264 91.0296C25.0336 91.0955 24.6302 91.0194 24.2884 90.8149C23.9466 90.6105 23.6888 90.291 23.5611 89.9138C23.4334 89.5365 23.4443 89.1261 23.5917 88.7561C23.739 88.3861 24.0133 88.0807 24.3654 87.8945L24.4397 87.8521C25.4211 87.3216 26.4714 86.7912 27.4527 86.2183C28.4341 85.6454 29.4048 85.0725 30.3013 84.4571C31.1507 83.8972 31.9463 83.2597 32.6778 82.5528C32.9609 82.2794 33.2103 81.9731 33.4205 81.6404C33.5796 81.3698 33.622 81.1789 33.5902 81.1576L33.5106 81.7942C33.4447 80.4598 33.3065 79.1299 33.0969 77.8104C32.8635 76.463 32.5664 75.1157 32.2481 73.763C31.9298 72.4103 31.5214 71.0629 31.1023 69.7208C30.8954 69.0525 30.678 68.3841 30.4446 67.721L30.0944 66.7396L29.7602 65.8113L29.7125 65.684C29.391 64.8518 29.4133 63.926 29.7744 63.1103C30.1355 62.2946 30.8059 61.6557 31.6381 61.3342C32.4703 61.0127 33.3961 61.035 34.2118 61.3961C35.0275 61.7572 35.6664 62.4276 35.9879 63.2598Z" fill="#EEC1BB"/>
<path d="M30.2482 56.3054C33.8448 56.9313 35.2823 58.9577 38.0938 66.2516C36.704 68.9304 30.3915 71.3971 30.3915 71.3971C30.3915 71.3971 27.1715 61.0743 30.2482 56.3054Z" fill="#E39700"/>
<path d="M85.1372 131.841C73.6898 106.724 65.4835 96.4592 65.2979 82.9217L83.5352 79.5851C83.5352 79.5851 97.7198 114.018 99.2157 129.772C100.77 146.153 106.923 180.506 106.923 180.506L98.6057 182.097C98.6057 182.097 85.5457 150.391 85.1372 131.841Z" fill="#0F1933"/>
<path opacity="0.2" d="M67.022 93.2392C69.1173 99.9814 73.0056 107.111 78.0503 117.11C77.1591 105.382 73.3769 91.7062 67.022 93.2392Z" fill="#0F1933"/>
<path d="M58.5557 135.973C56.9007 117.163 52.3015 98.7295 53.8346 84.8632L72.9313 81.6804C72.9313 81.6804 75.6791 120.558 73.5838 136.583C71.4089 153.245 65.7488 186.718 65.7488 186.718L57.2614 186.834C57.2614 186.834 56.3065 154.381 58.5557 135.973Z" fill="#0F1933"/>
<path d="M70.7458 32.0555C72.3372 32.5435 74.0718 33.0581 75.7428 33.5355C77.4138 34.0129 79.1112 34.4638 80.7822 34.8882C82.4532 35.3125 84.1294 35.6733 85.758 35.9491C86.5696 36.0923 87.3759 36.1931 88.1504 36.2833C88.8546 36.3641 89.5636 36.396 90.2722 36.3788L88.6066 36.9835C88.4714 37.086 88.3699 37.2263 88.3148 37.3867C88.3148 37.4609 88.3572 37.3867 88.3997 37.2328C88.4904 36.6671 88.4904 36.0905 88.3997 35.5247C88.1702 33.9355 87.7937 32.371 87.2751 30.8513C86.7446 29.2281 86.1346 27.589 85.4821 25.9552C84.8297 24.3213 84.1082 22.661 83.4186 21.0643L83.3921 21.0059C83.2036 20.5634 83.1819 20.0676 83.3308 19.6103C83.4798 19.153 83.7894 18.7652 84.2023 18.5186C84.6153 18.272 85.1036 18.1833 85.5768 18.2691C86.0501 18.3548 86.4763 18.6091 86.7765 18.9849C87.9382 20.4705 89.0235 22.0144 90.0282 23.6105C91.0513 25.2189 91.9863 26.8817 92.8291 28.5916C93.2534 29.4615 93.646 30.3633 94.0173 31.3022C94.4076 32.2759 94.7232 33.2778 94.9615 34.2994C95.2652 35.5123 95.3815 36.7645 95.3063 38.0126C95.2435 38.8634 95.0317 39.6965 94.6804 40.474C94.2298 41.4563 93.5292 42.3032 92.6487 42.93C92.1958 43.2502 91.6712 43.4543 91.121 43.5241H90.9777C88.8908 43.7471 86.7852 43.7293 84.7023 43.4711C82.7555 43.2642 80.8724 42.9406 79.0211 42.564C77.1698 42.1874 75.3556 41.7418 73.552 41.2537C71.7484 40.7657 70.0032 40.2299 68.1731 39.5828C67.2826 39.1726 66.5743 38.4488 66.1836 37.5495C65.7928 36.6503 65.7469 35.6387 66.0545 34.7078C66.3622 33.7769 67.002 32.9919 67.8516 32.5026C68.7013 32.0134 69.7014 31.8542 70.661 32.0555H70.7458Z" fill="#EEC1BB"/>
<path d="M84.3414 22.3374L80.1348 18.7037L85.6357 15.4679C85.6357 15.4679 89.4762 19.1812 87.4817 21.5152L84.3414 22.3374Z" fill="#EEC1BB"/>
<path d="M79.2862 14.6775L81.7158 13.1498C82.0141 12.9597 82.3692 12.8791 82.7204 12.9217C83.0715 12.9642 83.397 13.1274 83.6413 13.3832L85.6359 15.4679L80.135 18.7037L78.8459 16.8471C78.7288 16.6769 78.6471 16.4849 78.6058 16.2824C78.5645 16.08 78.5643 15.8713 78.6054 15.6688C78.6465 15.4663 78.728 15.2742 78.845 15.1039C78.9619 14.9336 79.112 14.7886 79.2862 14.6775Z" fill="#EEC1BB"/>
<path d="M67.3134 30.3845C72.4589 29.6101 80.8455 34.4002 80.8455 34.4002L79.0101 45.8104C79.0101 45.8104 75.1112 45.5134 69.9922 42.93C68.4379 42.1343 61.2289 31.3076 67.3134 30.3845Z" fill="#46B8B0"/>
<path d="M67.9077 30.3262C62.2317 30.8567 53.5427 32.8724 47.819 35.1853C46.3326 35.7787 45.0739 36.8304 44.2259 38.1878C43.3779 39.5452 42.9846 41.1376 43.1032 42.7338C43.6867 50.3406 48.0047 62.4829 53.5003 85.2292C56.3542 85.8181 64.4703 84.9004 70.8783 83.7492C71.5732 83.6272 73.1169 81.7971 73.1169 81.7971C73.1169 81.7971 74.8091 82.9748 75.6896 82.7732C79.9333 81.8078 83.2381 80.7044 83.9383 79.7814C81.774 74.6147 79.9492 59.4487 78.2465 50.3724C77.8327 46.7706 76.7452 40.161 74.9629 36.5061C73.276 33.0475 71.7217 29.9337 67.9077 30.3262Z" fill="#46B8B0"/>
<path d="M53.9671 23.2233C54.6461 27.1116 55.2562 31.6736 53.2935 34.6282C55.0917 36.8933 58.9853 38.4741 62.7782 39.1107C64.9265 36.087 64.412 33.4135 63.2184 31.9388C60.9215 30.5702 61.0648 28.1937 61.017 26.5546L53.9671 23.2233Z" fill="#EEC1BB"/>
<path d="M62.7778 39.1107C63.2084 38.4214 63.46 37.6355 63.5099 36.8244C63.5099 35.6414 65.6317 36.2568 65.6317 36.2568C64.9402 37.4365 63.9576 38.4191 62.7778 39.1107Z" fill="#0F1933"/>
<path d="M62.7782 39.1107C62.627 38.6981 62.3536 38.3414 61.9943 38.0883C61.6351 37.8352 61.2071 37.6978 60.7677 37.6944C59.731 37.641 58.6956 37.8223 57.7388 38.2248C57.7388 38.2248 60.7571 39.3282 62.7782 39.1107Z" fill="#0F1933"/>
<path opacity="0.2" d="M55.6484 24.6927C55.6006 24.4487 55.5635 24.1994 55.5264 23.9553L61.0167 26.5599C60.9633 27.6986 61.1142 28.8376 61.4623 29.9231C58.9107 29.1751 56.1099 27.0373 55.6484 24.6927Z" fill="#0F1933"/>
<path d="M60.5022 8.35969C63.685 7.82923 65.9076 11.5425 63.1545 16.7994C61.266 15.8976 59.7012 12.8686 59.7012 12.8686L60.5022 8.35969Z" fill="#0F1933"/>
<path d="M50.8584 18.2634C53.0439 22.9952 54.0837 25.8809 57.4998 27.3927C62.64 29.6684 67.7484 25.0534 67.0164 19.7487C66.3533 14.9746 62.8894 8.0361 57.3991 8.00427C56.1832 7.99571 54.9852 8.29593 53.917 8.87681C52.8489 9.45768 51.9458 10.3002 51.2921 11.3254C50.6385 12.3506 50.2559 13.525 50.18 14.7385C50.1042 15.9519 50.3376 17.1648 50.8584 18.2634Z" fill="#EEC1BB"/>
<path d="M65.2235 20.7407C65.2235 20.7407 63.5949 20.7407 59.3247 21.7168C60.2 22.8997 61.4466 23.7431 63.6215 23.218C63.8993 23.1806 64.1657 23.0835 64.4024 22.9333C64.6391 22.7831 64.8405 22.5835 64.9927 22.3481C65.145 22.1127 65.2444 21.8472 65.2842 21.5697C65.3241 21.2922 65.3033 21.0094 65.2235 20.7407Z" fill="#0F1933"/>
<path d="M62.311 22.4329C63.1541 22.1904 64.052 22.2182 64.8785 22.5125C64.5511 22.8801 64.1106 23.1283 63.6266 23.218C62.7857 23.4634 61.8885 23.4355 61.0645 23.1384C61.3884 22.7692 61.8278 22.5206 62.311 22.4329Z" fill="#CE0021"/>
<path d="M65.0165 20.746C65.0229 20.9114 64.9806 21.075 64.8948 21.2165C64.809 21.358 64.6834 21.4711 64.5337 21.5417C63.259 21.8305 61.9615 22.0079 60.6561 22.0722C60.4458 22.1012 60.2317 22.0786 60.0321 22.0066C59.8325 21.9345 59.6535 21.815 59.5103 21.6584C61.3191 21.2112 63.1601 20.9061 65.0165 20.746Z" fill="white"/>
<path d="M53.5904 21.4462L55.7494 21.0484C55.7494 21.0484 54.2588 16.8683 52.4658 15.7437C53.5268 14.7199 55.1182 12.6405 55.6168 11.1977C56.0554 10.0132 56.1318 8.72496 55.8361 7.49695C55.5405 6.26894 54.8861 5.15665 53.9564 4.30162C53.7493 5.39446 53.3027 6.42787 52.6488 7.32762C51.9949 8.22737 51.1498 8.97113 50.1742 9.50547C48.0895 10.6354 45.8669 13.468 48.4874 14.5873C45.6653 16.2795 47.0922 19.8548 53.5904 21.4462Z" fill="#0F1933"/>
<path d="M54.927 12.37C59.1707 12.4761 62.1042 8.12627 58.4281 2.87998C57.956 5.85058 53.8555 7.65416 53.8555 7.65416L54.927 12.37Z" fill="#0F1933"/>
<path d="M58.683 10.6619C61.4149 11.3196 63.5686 8.22173 61.521 3.50591C61.0329 5.83464 58.2852 6.68869 58.2852 6.68869L58.683 10.6619Z" fill="#0F1933"/>
<path d="M50.4075 22.5708C50.77 23.1046 51.2345 23.5613 51.7745 23.9146C52.3144 24.2678 52.9189 24.5107 53.5532 24.629C55.2613 24.942 55.9774 23.3771 55.3833 21.8441C54.8528 20.4649 53.3145 18.6613 51.67 19.022C50.0256 19.3827 49.5216 21.2341 50.4075 22.5708Z" fill="#EEC1BB"/>
<path d="M58.0302 17.2025C58.184 17.595 58.5182 17.8338 58.7782 17.733C59.0381 17.6322 59.1177 17.2025 58.9638 16.8312C58.81 16.4599 58.4758 16.1999 58.2159 16.3007C57.9559 16.4015 57.8764 16.7994 58.0302 17.2025Z" fill="#0F1933"/>
<path d="M62.948 15.2398C63.1018 15.6324 63.436 15.8711 63.696 15.7703C63.9559 15.6695 64.0355 15.2398 63.8816 14.8685C63.7278 14.4972 63.3936 14.2372 63.139 14.338C62.8844 14.4388 62.7942 14.842 62.948 15.2398Z" fill="#0F1933"/>
<path d="M61.3247 15.9029C61.3247 15.9029 63.1813 17.7542 64.6189 18.4067C64.2157 19.3509 62.9214 19.579 62.9214 19.579L61.3247 15.9029Z" fill="#D4827D"/>
<path d="M56.057 15.2504C56.0156 15.2638 55.971 15.2638 55.9297 15.2504C55.898 15.2419 55.8683 15.2271 55.8425 15.2068C55.8167 15.1866 55.7952 15.1614 55.7794 15.1326C55.7635 15.1039 55.7536 15.0723 55.7503 15.0397C55.7469 15.007 55.7502 14.9741 55.7599 14.9427C55.8574 14.5581 56.0455 14.2023 56.3085 13.9052C56.5715 13.6081 56.9018 13.3781 57.2717 13.2346C57.3024 13.2248 57.3347 13.221 57.3668 13.2237C57.3988 13.2264 57.4301 13.2354 57.4587 13.2501C57.4873 13.2649 57.5127 13.2852 57.5334 13.3099C57.5541 13.3345 57.5697 13.3631 57.5794 13.3938C57.5995 13.4564 57.5941 13.5244 57.5642 13.583C57.5344 13.6416 57.4827 13.6861 57.4203 13.7068C57.1293 13.8271 56.8706 14.0141 56.6651 14.2528C56.4597 14.4914 56.3131 14.775 56.2373 15.0807C56.2237 15.1217 56.2002 15.1588 56.1687 15.1884C56.1372 15.218 56.0988 15.2393 56.057 15.2504Z" fill="#0F1933"/>
<path d="M63.6906 12.248C63.6534 12.2663 63.6126 12.2757 63.5712 12.2757C63.5299 12.2757 63.489 12.2663 63.4519 12.248C63.1824 12.0898 62.8786 11.9989 62.5664 11.9832C62.2543 11.9675 61.943 12.0274 61.6589 12.1578C61.6011 12.1881 61.5337 12.1945 61.4712 12.1757C61.4088 12.1568 61.3562 12.1142 61.3247 12.057C61.2942 11.9984 61.2876 11.9302 61.3064 11.8669C61.3252 11.8035 61.3679 11.75 61.4255 11.7175C61.7824 11.5491 62.1748 11.4693 62.5691 11.485C62.9635 11.5007 63.3482 11.6114 63.6906 11.8077C63.7194 11.8228 63.745 11.8434 63.7657 11.8685C63.7864 11.8935 63.8019 11.9225 63.8113 11.9536C63.8207 11.9847 63.8238 12.0174 63.8204 12.0498C63.8169 12.0821 63.8071 12.1134 63.7914 12.1419C63.7663 12.1845 63.7318 12.2208 63.6906 12.248Z" fill="#0F1933"/>
<path d="M50.2856 43.4393C49.7127 45.0996 49.0761 46.7759 48.482 48.4469L46.6466 53.4491L44.8165 58.4408C44.2277 60.1065 43.623 61.7615 43.0554 63.4112L43.0289 61.2894C43.5825 63.0724 44.276 64.8088 45.103 66.4826C45.9517 68.2756 46.8641 70.0898 47.8189 71.8934C48.7738 73.6969 49.7445 75.5058 50.7259 77.3147L53.6859 82.7573C53.924 83.1865 53.9945 83.6887 53.8839 84.1669C53.7733 84.6451 53.4894 85.0653 53.087 85.3463C52.6846 85.6273 52.1923 85.7492 51.7052 85.6884C51.2182 85.6276 50.771 85.3884 50.45 85.017C49.0443 83.4257 47.7341 81.7865 46.4397 80.1209C45.1454 78.4552 43.8988 76.7524 42.684 75.0178C41.4693 73.2832 40.297 71.4955 39.1989 69.623C38.001 67.6791 36.9903 65.6258 36.1806 63.4908C35.9664 62.9002 35.935 62.2588 36.0904 61.6501L36.1593 61.3849C36.6102 59.5972 37.077 57.8308 37.5969 56.0802C38.1168 54.3297 38.6578 52.5951 39.1883 50.8711C39.7188 49.1471 40.3235 47.4284 40.9282 45.7256C41.5329 44.0228 42.143 42.3253 42.8273 40.6278C43.1959 39.6374 43.9428 38.8339 44.9038 38.3942C45.8648 37.9545 46.9611 37.9146 47.9516 38.2832C48.942 38.6518 49.7455 39.3987 50.1852 40.3597C50.6249 41.3207 50.6648 42.417 50.2962 43.4074L50.2856 43.4393Z" fill="#EEC1BB"/>
<path d="M47.5111 35.3232C41.8086 37.3602 38.6895 48.4999 38.6895 48.4999L47.7763 56.5948C47.7763 56.5948 51.5214 53.9106 52.2852 48.2241C52.8688 43.8371 53.3037 33.2332 47.5111 35.3232Z" fill="#46B8B0"/>
<path d="M51.9406 80.2535L56.6193 82.7838L52.1369 87.3246C52.1369 87.3246 48.1743 84.5184 49.3255 82.1737L51.9406 80.2535Z" fill="#EEC1BB"/>
<path d="M58.2424 88.0672L56.4017 89.3934C56.0464 89.649 55.612 89.7702 55.1757 89.7352C54.7394 89.7002 54.3298 89.5114 54.0199 89.2024L52.1367 87.3246L56.6191 82.7838L58.6402 85.4626C58.7873 85.6589 58.8938 85.8826 58.9535 86.1205C59.0132 86.3585 59.0249 86.6059 58.9878 86.8484C58.9508 87.0909 58.8658 87.3236 58.7378 87.5328C58.6098 87.7421 58.4414 87.9238 58.2424 88.0672Z" fill="#EEC1BB"/>
<path d="M54.105 32.3367C54.349 33.5196 55.4311 37.4715 60.7676 37.6943C58.9269 38.2938 58.4919 41.8001 58.4919 41.8001C58.4919 41.8001 53.0016 38.3415 52.4658 34.0129C52.625 32.8724 54.105 32.3367 54.105 32.3367Z" fill="white"/>
<path d="M61.7275 30.2678C61.9662 31.4242 63.7645 33.3604 63.5099 36.8244C65.3612 36.2568 67.7006 37.8216 67.7006 37.8216C67.1545 35.1616 65.8672 32.7102 63.9873 30.7506C63.2783 30.4267 62.507 30.2619 61.7275 30.2678Z" fill="white"/>
</g>
<defs>
<clipPath id="clip0_1_366">
<rect width="96" height="96" rx="48" fill="white"/>
</clipPath>
</defs>
</svg>
